<svg width="88" height="10" viewBox="0 0 88 10" fill="none" xmlns="http://www.w3.org/2000/svg">
<path fill-rule="evenodd" clip-rule="evenodd" d="M64.063 1.5C64.285 0.637386 65.0681 0 66 0H87.6667C87.8508 0 88 0.149238 88 0.333333C88 2.35838 86.3584 4 84.3333 4H66C65.0681 4 64.285 3.36261 64.063 2.5H63.5C63.1925 2.5 62.3142 2.74313 61.9821 3.95076C61.8149 4.55874 61.4011 5.01484 60.8567 5.35143C60.3191 5.68372 59.6316 5.91502 58.8538 6.08003C58.4496 6.16575 58.0124 6.23529 57.547 6.29125C56.6468 8.46825 54.5023 10 52 10H6C2.68629 10 0 7.31371 0 4H58C58 4.42484 57.9558 4.83937 57.8719 5.23925C58.1438 5.19916 58.4023 5.15354 58.6462 5.10179C59.3684 4.94862 59.9309 4.7481 60.3308 4.50084C60.7239 4.25788 60.9351 3.98671 61.0179 3.6856C61.4858 1.98414 62.8075 1.5 63.5 1.5H64.063Z" fill="black"/>
</svg>
